<svg xmlns="http://www.w3.org/2000/svg" viewBox="0 0 64 64">
  <defs>
    <linearGradient id="g" x1="10" x2="54" y1="8" y2="56" gradientUnits="userSpaceOnUse">
      <stop stop-color="#f2f5f7"/>
      <stop offset="0.48" stop-color="#aeb7c1"/>
      <stop offset="1" stop-color="#5a626b"/>
    </linearGradient>
    <linearGradient id="a" x1="16" x2="48" y1="18" y2="46" gradientUnits="userSpaceOnUse">
      <stop stop-color="#7aa2f7"/>
      <stop offset="1" stop-color="#ffb86b"/>
    </linearGradient>
  </defs>
  <rect width="64" height="64" rx="15" fill="#101214"/>
  <path d="M15 20c7-9 20-10 28-3 4 4 6 8 7 13-7-2-13-2-19 0-7 2-13 7-16 13-6-7-7-16 0-23z" fill="url(#g)" opacity="0.92"/>
  <path d="M49 44c-7 9-20 10-28 3-4-4-6-8-7-13 7 2 13 2 19 0 7-2 13-7 16-13 6 7 7 16 0 23z" fill="url(#g)" opacity="0.74"/>
  <path d="M18 33c8 3 16 3 27-1" fill="none" stroke="url(#a)" stroke-width="5" stroke-linecap="round"/>
  <circle cx="21" cy="33" r="4" fill="#7aa2f7"/>
  <circle cx="43" cy="32" r="4" fill="#ffb86b"/>
  <path d="M18 51h28" stroke="#d9dde2" stroke-width="2.6" stroke-linecap="round" opacity="0.9"/>
  <path d="M18 55h18" stroke="#7e8792" stroke-width="2.2" stroke-linecap="round" opacity="0.85"/>
</svg>
