<svg xmlns="http://www.w3.org/2000/svg" width="128" height="128" viewBox="0 0 128 128" role="img" aria-labelledby="title desc">
  <title id="title">Molecular interface</title>
  <desc id="desc">Complementary blue-violet and green protein surfaces meet at three amber contacts above a two-way interface arrow.</desc>
  <defs>
    <linearGradient id="left" x1="21" y1="24" x2="67" y2="100" gradientUnits="userSpaceOnUse"><stop stop-color="#B5B7E5"/><stop offset=".45" stop-color="#82AEEA"/><stop offset="1" stop-color="#486DB3"/></linearGradient>
    <linearGradient id="right" x1="73" y1="22" x2="104" y2="100" gradientUnits="userSpaceOnUse"><stop stop-color="#CAE8D9"/><stop offset=".44" stop-color="#91C9AF"/><stop offset="1" stop-color="#438C79"/></linearGradient>
    <linearGradient id="contact" x1="56" y1="39" x2="74" y2="87" gradientUnits="userSpaceOnUse"><stop stop-color="#F6CB72"/><stop offset="1" stop-color="#C58A32"/></linearGradient>
  </defs>
  <g stroke="#253544" stroke-linecap="round" stroke-linejoin="round">
    <path d="M43 20C59 18 69 30 65 43 61 52 51 53 53 63 54 73 64 74 63 85 63 99 47 107 33 101 17 96 12 82 16 68 11 53 16 36 28 26 32 23 38 21 43 20Z" fill="url(#left)" stroke-width="4.5"/>
    <path d="M87 20C102 23 112 37 109 53 116 70 110 88 96 99 83 109 68 103 66 89 64 78 75 73 75 63 75 53 66 50 68 38 70 26 78 20 87 20Z" fill="url(#right)" stroke-width="4.5"/>
    <path d="M25 48C25 34 36 25 46 26M80 28C92 27 102 39 101 49" fill="none" stroke="#F2FAFF" stroke-width="2.5" opacity=".75"/>
    <path d="M57 45H71M56 64H72M60 83H69" fill="none" stroke="url(#contact)" stroke-width="4.5"/>
    <path d="M37 109H91M43 104 37 109 43 114M85 104 91 109 85 114" fill="none" stroke-width="3.5"/>
  </g>
</svg>
